<svg version="1.1" xmlns="http://www.w3.org/2000/svg" xmlns:xlink="http://www.w3.org/1999/xlink" width="813" height="843" viewBox="0 0 813 843"><defs/><g transform="matrix(1,0,0,1,0,0)"><g><g><g><path fill="none" stroke="#d3d3d3" paint-order="fill stroke markers" d=" M 0 0 L 1200 0" stroke-miterlimit="10" stroke-opacity="0.8" stroke-dasharray="5"/></g><g><path fill="none" stroke="#d3d3d3" paint-order="fill stroke markers" d=" M 0 0 L 0 800" stroke-miterlimit="10" stroke-opacity="0.8" stroke-dasharray="5"/></g></g><g id="_B1FA86AE-D3F8-424B-8A0A-43FF8A4B8B26" bpmn2nodeid="_B1FA86AE-D3F8-424B-8A0A-43FF8A4B8B26" transform="matrix(1,0,0,1,113,7)"><g><path fill="none" stroke="none"/></g><g transform="matrix(1,0,0,1,0,0)"><path fill="#f2f2f2" stroke="none" id="_B1FA86AE-D3F8-424B-8A0A-43FF8A4B8B26?shapeType=BACKGROUND" paint-order="stroke fill markers" d=" M 0 0 L 650 0 L 650 250 L 0 250 L 0 0 Z Z"/></g><g transform="matrix(1,0,0,1,0,0)"><path fill="none" stroke="rgb(0,0,0)" id="_B1FA86AE-D3F8-424B-8A0A-43FF8A4B8B26?shapeType=BORDER&amp;renderType=STROKE" paint-order="fill stroke markers" d=" M 0 0 L 650 0 L 650 250 L 0 250 L 0 0 Z Z" stroke-miterlimit="10" stroke-width="0.5" stroke-dasharray=""/></g><g transform="matrix(1,0,0,1,4.618527782440651e-14,250)"><g transform="matrix(-1.8369701987210297e-16,-1,1,-1.8369701987210297e-16,0,0)"><text fill="#000000" stroke="none" font-family="Open Sans" font-size="12pt" font-style="normal" font-weight="normal" text-decoration="normal" x="125" y="12" text-anchor="middle" dominant-baseline="alphabetic" id="_B1FA86AE-D3F8-424B-8A0A-43FF8A4B8B26undefined">                      Supplier                       </text><path fill="none" stroke="none"/><text fill="none" stroke="#393f44" font-family="Open Sans" font-size="12pt" font-style="normal" font-weight="normal" text-decoration="normal" x="125" y="12" text-anchor="middle" dominant-baseline="alphabetic" stroke-miterlimit="10" stroke-dasharray="">                      Supplier                       </text></g><g><path fill="none" stroke="black" id="_B1FA86AE-D3F8-424B-8A0A-43FF8A4B8B26undefined" paint-order="fill stroke markers" d=" M 0 0 L 0 0" stroke-miterlimit="10" stroke-opacity="0.1" stroke-dasharray=""/></g></g></g><g id="_B1FA86AE-D3F8-424B-8A0A-43FF8A4B8B26" bpmn2nodeid="_B1FA86AE-D3F8-424B-8A0A-43FF8A4B8B26" transform="matrix(1,0,0,1,113,7)"><g><path fill="none" stroke="none"/></g><g transform="matrix(1,0,0,1,0,0)"><path fill="#f2f2f2" stroke="none" id="_B1FA86AE-D3F8-424B-8A0A-43FF8A4B8B26?shapeType=BACKGROUND" paint-order="stroke fill markers" d=" M 0 0 L 650 0 L 650 250 L 0 250 L 0 0 Z Z"/></g><g transform="matrix(1,0,0,1,0,0)"><path fill="none" stroke="rgb(0,0,0)" id="_B1FA86AE-D3F8-424B-8A0A-43FF8A4B8B26?shapeType=BORDER&amp;renderType=STROKE" paint-order="fill stroke markers" d=" M 0 0 L 650 0 L 650 250 L 0 250 L 0 0 Z Z" stroke-miterlimit="10" stroke-width="0.5" stroke-dasharray=""/></g><g transform="matrix(1,0,0,1,4.618527782440651e-14,250)"><g transform="matrix(-1.8369701987210297e-16,-1,1,-1.8369701987210297e-16,0,0)"><text fill="#000000" stroke="none" font-family="Open Sans" font-size="12pt" font-style="normal" font-weight="normal" text-decoration="normal" x="125" y="12" text-anchor="middle" dominant-baseline="alphabetic" id="_B1FA86AE-D3F8-424B-8A0A-43FF8A4B8B26undefined">                      Supplier                       </text><path fill="none" stroke="none"/><text fill="none" stroke="#393f44" font-family="Open Sans" font-size="12pt" font-style="normal" font-weight="normal" text-decoration="normal" x="125" y="12" text-anchor="middle" dominant-baseline="alphabetic" stroke-miterlimit="10" stroke-dasharray="">                      Supplier                       </text></g><g><path fill="none" stroke="black" id="_B1FA86AE-D3F8-424B-8A0A-43FF8A4B8B26undefined" paint-order="fill stroke markers" d=" M 0 0 L 0 0" stroke-miterlimit="10" stroke-opacity="0.1" stroke-dasharray=""/></g></g></g><g transform="matrix(1,0,0,1,113,7)"/><g id="_BE1BB712-582C-4F67-ADB3-9AB7CE97E7B5" bpmn2nodeid="_BE1BB712-582C-4F67-ADB3-9AB7CE97E7B5" transform="matrix(1,0,0,1,113,275)"><g><path fill="none" stroke="none"/></g><g transform="matrix(1,0,0,1,0,0)"><path fill="#f2f2f2" stroke="none" id="_BE1BB712-582C-4F67-ADB3-9AB7CE97E7B5?shapeType=BACKGROUND" paint-order="stroke fill markers" d=" M 0 0 L 650 0 L 650 250 L 0 250 L 0 0 Z Z"/></g><g transform="matrix(1,0,0,1,0,0)"><path fill="none" stroke="rgb(0,0,0)" id="_BE1BB712-582C-4F67-ADB3-9AB7CE97E7B5?shapeType=BORDER&amp;renderType=STROKE" paint-order="fill stroke markers" d=" M 0 0 L 650 0 L 650 250 L 0 250 L 0 0 Z Z" stroke-miterlimit="10" stroke-width="0.5" stroke-dasharray=""/></g><g transform="matrix(1,0,0,1,4.618527782440651e-14,250)"><g transform="matrix(-1.8369701987210297e-16,-1,1,-1.8369701987210297e-16,0,0)"><text fill="#000000" stroke="none" font-family="Open Sans" font-size="12pt" font-style="normal" font-weight="normal" text-decoration="normal" x="125" y="12" text-anchor="middle" dominant-baseline="alphabetic" id="_BE1BB712-582C-4F67-ADB3-9AB7CE97E7B5undefined">                      Purchase                      </text><path fill="none" stroke="none"/><text fill="none" stroke="#393f44" font-family="Open Sans" font-size="12pt" font-style="normal" font-weight="normal" text-decoration="normal" x="125" y="12" text-anchor="middle" dominant-baseline="alphabetic" stroke-miterlimit="10" stroke-dasharray="">                      Purchase                      </text></g><g><path fill="none" stroke="black" id="_BE1BB712-582C-4F67-ADB3-9AB7CE97E7B5undefined" paint-order="fill stroke markers" d=" M 0 0 L 0 0" stroke-miterlimit="10" stroke-opacity="0.1" stroke-dasharray=""/></g></g></g><g id="_BE1BB712-582C-4F67-ADB3-9AB7CE97E7B5" bpmn2nodeid="_BE1BB712-582C-4F67-ADB3-9AB7CE97E7B5" transform="matrix(1,0,0,1,113,275)"><g><path fill="none" stroke="none"/></g><g transform="matrix(1,0,0,1,0,0)"><path fill="#f2f2f2" stroke="none" id="_BE1BB712-582C-4F67-ADB3-9AB7CE97E7B5?shapeType=BACKGROUND" paint-order="stroke fill markers" d=" M 0 0 L 650 0 L 650 250 L 0 250 L 0 0 Z Z"/></g><g transform="matrix(1,0,0,1,0,0)"><path fill="none" stroke="rgb(0,0,0)" id="_BE1BB712-582C-4F67-ADB3-9AB7CE97E7B5?shapeType=BORDER&amp;renderType=STROKE" paint-order="fill stroke markers" d=" M 0 0 L 650 0 L 650 250 L 0 250 L 0 0 Z Z" stroke-miterlimit="10" stroke-width="0.5" stroke-dasharray=""/></g><g transform="matrix(1,0,0,1,4.618527782440651e-14,250)"><g transform="matrix(-1.8369701987210297e-16,-1,1,-1.8369701987210297e-16,0,0)"><text fill="#000000" stroke="none" font-family="Open Sans" font-size="12pt" font-style="normal" font-weight="normal" text-decoration="normal" x="125" y="12" text-anchor="middle" dominant-baseline="alphabetic" id="_BE1BB712-582C-4F67-ADB3-9AB7CE97E7B5undefined">                      Purchase                      </text><path fill="none" stroke="none"/><text fill="none" stroke="#393f44" font-family="Open Sans" font-size="12pt" font-style="normal" font-weight="normal" text-decoration="normal" x="125" y="12" text-anchor="middle" dominant-baseline="alphabetic" stroke-miterlimit="10" stroke-dasharray="">                      Purchase                      </text></g><g><path fill="none" stroke="black" id="_BE1BB712-582C-4F67-ADB3-9AB7CE97E7B5undefined" paint-order="fill stroke markers" d=" M 0 0 L 0 0" stroke-miterlimit="10" stroke-opacity="0.1" stroke-dasharray=""/></g></g></g><g transform="matrix(1,0,0,1,113,275)"/><g id="_C5957491-6049-4808-8CC8-BBF51736050A" bpmn2nodeid="_C5957491-6049-4808-8CC8-BBF51736050A" transform="matrix(1,0,0,1,113,543)"><g><path fill="none" stroke="none"/></g><g transform="matrix(1,0,0,1,0,0)"><path fill="#f2f2f2" stroke="none" id="_C5957491-6049-4808-8CC8-BBF51736050A?shapeType=BACKGROUND" paint-order="stroke fill markers" d=" M 0 0 L 650 0 L 650 250 L 0 250 L 0 0 Z Z"/></g><g transform="matrix(1,0,0,1,0,0)"><path fill="none" stroke="rgb(0,0,0)" id="_C5957491-6049-4808-8CC8-BBF51736050A?shapeType=BORDER&amp;renderType=STROKE" paint-order="fill stroke markers" d=" M 0 0 L 650 0 L 650 250 L 0 250 L 0 0 Z Z" stroke-miterlimit="10" stroke-width="0.5" stroke-dasharray=""/></g><g transform="matrix(1,0,0,1,4.618527782440651e-14,250)"><g transform="matrix(-1.8369701987210297e-16,-1,1,-1.8369701987210297e-16,0,0)"><text fill="#000000" stroke="none" font-family="Open Sans" font-size="12pt" font-style="normal" font-weight="normal" text-decoration="normal" x="125" y="12" text-anchor="middle" dominant-baseline="alphabetic" id="_C5957491-6049-4808-8CC8-BBF51736050Aundefined">                      Manager                      </text><path fill="none" stroke="none"/><text fill="none" stroke="#393f44" font-family="Open Sans" font-size="12pt" font-style="normal" font-weight="normal" text-decoration="normal" x="125" y="12" text-anchor="middle" dominant-baseline="alphabetic" stroke-miterlimit="10" stroke-dasharray="">                      Manager                      </text></g><g><path fill="none" stroke="black" id="_C5957491-6049-4808-8CC8-BBF51736050Aundefined" paint-order="fill stroke markers" d=" M 0 0 L 0 0" stroke-miterlimit="10" stroke-opacity="0.1" stroke-dasharray=""/></g></g></g><g id="_C5957491-6049-4808-8CC8-BBF51736050A" bpmn2nodeid="_C5957491-6049-4808-8CC8-BBF51736050A" transform="matrix(1,0,0,1,113,543)"><g><path fill="none" stroke="none"/></g><g transform="matrix(1,0,0,1,0,0)"><path fill="#f2f2f2" stroke="none" id="_C5957491-6049-4808-8CC8-BBF51736050A?shapeType=BACKGROUND" paint-order="stroke fill markers" d=" M 0 0 L 650 0 L 650 250 L 0 250 L 0 0 Z Z"/></g><g transform="matrix(1,0,0,1,0,0)"><path fill="none" stroke="rgb(0,0,0)" id="_C5957491-6049-4808-8CC8-BBF51736050A?shapeType=BORDER&amp;renderType=STROKE" paint-order="fill stroke markers" d=" M 0 0 L 650 0 L 650 250 L 0 250 L 0 0 Z Z" stroke-miterlimit="10" stroke-width="0.5" stroke-dasharray=""/></g><g transform="matrix(1,0,0,1,4.618527782440651e-14,250)"><g transform="matrix(-1.8369701987210297e-16,-1,1,-1.8369701987210297e-16,0,0)"><text fill="#000000" stroke="none" font-family="Open Sans" font-size="12pt" font-style="normal" font-weight="normal" text-decoration="normal" x="125" y="12" text-anchor="middle" dominant-baseline="alphabetic" id="_C5957491-6049-4808-8CC8-BBF51736050Aundefined">                      Manager                      </text><path fill="none" stroke="none"/><text fill="none" stroke="#393f44" font-family="Open Sans" font-size="12pt" font-style="normal" font-weight="normal" text-decoration="normal" x="125" y="12" text-anchor="middle" dominant-baseline="alphabetic" stroke-miterlimit="10" stroke-dasharray="">                      Manager                      </text></g><g><path fill="none" stroke="black" id="_C5957491-6049-4808-8CC8-BBF51736050Aundefined" paint-order="fill stroke markers" d=" M 0 0 L 0 0" stroke-miterlimit="10" stroke-opacity="0.1" stroke-dasharray=""/></g></g></g><g transform="matrix(1,0,0,1,113,543)"/></g></g></svg>